<!-- Generated by IcoMoon.io -->
<svg version="1.1" xmlns="http://www.w3.org/2000/svg" width="768" height="768" viewBox="0 0 768 768">
<title></title>
<g id="icomoon-ignore">
</g>
<path d="M703.5 384q0-66-24.75-123.75t-69-102-102-69-123.75-24.75-123.75 24.75-102 69-69 102-24.75 123.75q0 58.5 18.75 110.25t54 93.75 81.75 70.5 100.5 39v-217.5h-63v-96h63v-79.5q0-31.5 15.75-57t40.5-40.5 56.25-15h79.5v96h-63q-13.5 0-23.25 9.75t-9.75 21.75v64.5h96v96h-96v222q61.5-6 114-33t91.5-69.75 60.75-97.5 21.75-117.75z"></path>
</svg>
