<!-- Generated by IcoMoon.io -->
<svg version="1.1" xmlns="http://www.w3.org/2000/svg" width="640" height="640" viewBox="0 0 640 640">
<title></title>
<g id="icomoon-ignore">
</g>
<path d="M416 320c0 53.024-42.976 96-96 96s-96-42.976-96-96c0-5.472 0.576-10.816 1.568-16h-33.568v127.904c0 8.896 7.2 16.096 16.096 16.096h223.84c8.864 0 16.064-7.2 16.064-16.096v-127.904h-33.568c0.992 5.184 1.568 10.528 1.568 16zM320 384c35.328 0 64-28.672 64-64s-28.672-64-64-64-64 28.672-64 64 28.672 64 64 64zM396.8 252.8h38.368c5.312 0 9.632-4.32 9.632-9.6v-38.368c0-5.312-4.32-9.632-9.632-9.632h-38.368c-5.312 0-9.632 4.32-9.632 9.632v38.368c0.032 5.28 4.352 9.6 9.632 9.6zM320 12.8c-169.664 0-307.2 137.536-307.2 307.2s137.536 307.2 307.2 307.2c169.664 0 307.2-137.536 307.2-307.2s-137.536-307.2-307.2-307.2zM480 444.448c0 19.552-16 35.552-35.552 35.552h-248.896c-19.552 0-35.552-16-35.552-35.552v-248.896c0-19.552 16-35.552 35.552-35.552h248.896c19.552 0 35.552 16 35.552 35.552v248.896z"></path>
</svg>
