<!-- Generated by IcoMoon.io -->
<svg version="1.1" xmlns="http://www.w3.org/2000/svg" width="640" height="640" viewBox="0 0 640 640">
<title></title>
<g id="icomoon-ignore">
</g>
<path fill="#000" stroke="#000" d="M183.008 472c-7.552 0-15.168-2.656-21.248-8.064l-161.92-143.936 170.912-151.936c13.184-11.68 33.408-10.56 45.152 2.656s10.56 33.44-2.656 45.184l-117.088 104.096 108.096 96.064c13.216 11.744 14.4 31.968 2.656 45.184-6.304 7.136-15.104 10.752-23.904 10.752zM469.248 471.936l170.912-151.936-161.92-143.936c-13.216-11.744-33.44-10.56-45.152 2.656-11.744 13.216-10.56 33.44 2.656 45.184l108.096 96.096-117.088 104.064c-13.216 11.744-14.4 31.968-2.656 45.184 6.304 7.136 15.104 10.752 23.904 10.752 7.552 0 15.168-2.656 21.248-8.064zM319.552 517.28l64-384c2.912-17.44-8.864-33.92-26.304-36.832-17.504-2.944-33.952 8.864-36.8 26.304l-64 384c-2.912 17.44 8.864 33.92 26.304 36.832 1.792 0.288 3.52 0.416 5.28 0.416 15.36 0 28.928-11.104 31.52-26.72z"></path>
</svg>
